<svg width="73" height="72" viewBox="0 0 73 72" fill="none" xmlns="http://www.w3.org/2000/svg">
<path fill-rule="evenodd" clip-rule="evenodd" d="M69.6945 29.106C70.2679 29.1059 70.8284 28.9381 71.3052 28.6236C71.782 28.3092 72.1535 27.8623 72.3729 27.3394C72.5924 26.8165 72.6498 26.2411 72.5379 25.686C72.426 25.131 72.1499 24.6211 71.7444 24.2209C71.3389 23.8207 70.8223 23.5482 70.2599 23.4378C69.6975 23.3274 69.1146 23.3841 68.5848 23.6007C68.0551 23.8172 67.6023 24.184 67.2837 24.6546C66.9652 25.1252 66.7951 25.6784 66.7951 26.2444C66.7952 27.0033 67.1007 27.7312 67.6444 28.2678C68.1881 28.8045 68.9256 29.106 69.6945 29.106ZM70.2228 41.9026C63.1151 41.9026 59.5487 50.4018 64.5745 55.3622C64.7947 55.5795 64.9694 55.8376 65.0886 56.1215C65.2077 56.4055 65.2691 56.7099 65.2691 57.0173C65.2691 57.3246 65.2077 57.629 65.0886 57.913C64.9694 58.197 64.7947 58.455 64.5745 58.6723L59.4701 63.7105C59.0253 64.1494 58.4221 64.396 57.7932 64.396C57.1643 64.396 56.5611 64.1494 56.1164 63.7105C51.0906 58.75 42.4795 62.2706 42.4795 69.2855C42.4795 69.9059 42.2297 70.5009 41.7853 70.9397C41.3408 71.3784 40.738 71.625 40.1094 71.6251H32.8906C32.2618 71.6251 31.6588 71.3786 31.2141 70.9397C30.7695 70.5009 30.5197 69.9057 30.5197 69.285C30.5197 62.2608 21.9151 58.7433 16.883 63.71C16.4383 64.1489 15.8351 64.3955 15.2062 64.3955C14.5773 64.3955 13.9741 64.1489 13.5293 63.71L8.42568 58.6719C8.20546 58.4545 8.03078 58.1965 7.9116 57.9125C7.79242 57.6286 7.73107 57.3242 7.73107 57.0168C7.73107 56.7094 7.79242 56.4051 7.9116 56.1211C8.03078 55.8371 8.20546 55.5791 8.42568 55.3617C13.4513 50.4014 9.88447 41.9022 2.77716 41.9022C2.14845 41.9022 1.54546 41.6558 1.10084 41.217C0.656219 40.7783 0.40637 40.1832 0.40625 39.5626V36.7423C0.406647 36.5456 0.485998 36.3571 0.626931 36.218C0.767863 36.0789 0.958895 36.0005 1.1582 36.0001H18.125C18.3192 36.0002 18.5058 36.0744 18.6458 36.2072C18.7859 36.34 18.8684 36.5211 18.8762 36.7126C19.0627 41.2027 21.0011 45.4476 24.2858 48.5594C27.5705 51.6713 31.9471 53.4089 36.5001 53.4089C41.053 53.4089 45.4296 51.6713 48.7143 48.5594C51.999 45.4476 53.9374 41.2027 54.124 36.7126C54.1317 36.5211 54.2143 36.34 54.3543 36.2072C54.4942 36.0744 54.6809 36.0002 54.875 36.0001H71.8418C72.0411 36.0005 72.2321 36.0789 72.3731 36.218C72.514 36.3571 72.5934 36.5456 72.5938 36.7423V39.5626C72.5938 39.87 72.5325 40.1743 72.4133 40.4582C72.2942 40.7421 72.1195 41.0001 71.8994 41.2174C71.6792 41.4347 71.4178 41.6071 71.1302 41.7247C70.8425 41.8423 70.5342 41.9028 70.2228 41.9028V41.9026ZM61.0683 33.922L61.0576 26.2444C61.0576 25.9695 61.1679 25.7058 61.3645 25.5111C61.561 25.3163 61.8278 25.2064 62.1063 25.2053H64.8011C64.6525 25.8903 64.6525 26.5985 64.8011 27.2835H63.1563L63.1656 33.922H61.0683ZM9.83439 33.922L9.84371 27.2835H8.19889C8.34718 26.5985 8.34718 25.8903 8.19889 25.2053H10.8937C11.1722 25.2064 11.439 25.3163 11.6355 25.5111C11.8321 25.7058 11.9424 25.9695 11.9424 26.2444L11.9317 33.922H9.83439ZM15.7748 33.922L15.7868 18.3769H13.3606C13.5087 17.6919 13.5087 16.9838 13.3606 16.2988H16.8373C17.1155 16.3003 17.3818 16.4104 17.578 16.6051C17.7742 16.7998 17.8844 17.0632 17.8843 17.3378L17.8714 33.922H15.7748ZM16.7166 8.98645C16.0226 9.13281 15.3051 9.13281 14.6111 8.98645V11.2705C14.6111 11.546 14.722 11.8103 14.9194 12.0052C15.1169 12.2001 15.3846 12.3095 15.6638 12.3095H27.2854V33.922H29.3909V11.2705C29.3909 10.9949 29.28 10.7306 29.0825 10.5357C28.8851 10.3409 28.6174 10.2314 28.3382 10.2314H16.716V8.98645H16.7166ZM37.5527 8.06659V33.922H35.4473V8.06659C36.1412 8.21324 36.8588 8.21324 37.5527 8.06659ZM58.3895 8.9869V11.2705C58.3895 11.546 58.2786 11.8103 58.0812 12.0052C57.8837 12.2001 57.616 12.3095 57.3368 12.3095H45.7152V33.922H43.6097V11.2705C43.6097 10.9949 43.7206 10.7306 43.9181 10.5357C44.1155 10.3409 44.3832 10.2314 44.6624 10.2314H56.284V8.98645C56.978 9.13311 57.6955 9.13311 58.3895 8.98645V8.9869ZM55.1286 33.922H57.2258L57.2138 18.3769H59.6394C59.491 17.6919 59.491 16.9837 59.6394 16.2988H56.1643C55.8858 16.2998 55.6191 16.4098 55.4226 16.6045C55.226 16.7993 55.1157 17.063 55.1157 17.3378L55.1286 33.922ZM49.1495 36.7883C49.1562 36.6871 49.1418 36.5856 49.107 36.4902C49.0723 36.3947 49.0181 36.3073 48.9477 36.2334C48.8773 36.1595 48.7923 36.1006 48.6979 36.0605C48.6036 36.0204 48.5018 35.9998 48.3991 36.0001H24.6009C24.4982 35.9998 24.3964 36.0204 24.3021 36.0605C24.2077 36.1006 24.1227 36.1595 24.0523 36.2334C23.9819 36.3073 23.9277 36.3947 23.893 36.4902C23.8582 36.5856 23.8438 36.6871 23.8505 36.7883C24.0539 39.9632 25.4751 42.9424 27.825 45.1197C30.1749 47.2971 33.2769 48.509 36.5 48.509C39.7231 48.509 42.8251 47.2971 45.175 45.1197C47.5249 42.9424 48.9461 39.9632 49.1495 36.7883ZM3.30548 29.106C3.87889 29.106 4.43943 28.9381 4.91621 28.6237C5.39298 28.3093 5.76458 27.8624 5.98402 27.3395C6.20346 26.8166 6.26087 26.2412 6.149 25.6861C6.03714 25.131 5.76101 24.6211 5.35555 24.2209C4.95008 23.8207 4.43349 23.5482 3.87109 23.4378C3.3087 23.3274 2.72576 23.384 2.19599 23.6006C1.66623 23.8172 1.21343 24.184 0.894858 24.6546C0.576287 25.1252 0.40625 25.6784 0.40625 26.2444C0.40629 27.0033 0.711756 27.7311 1.25546 28.2678C1.79916 28.8044 2.53657 29.1059 3.30548 29.106ZM8.46719 20.1997C9.04064 20.1997 9.60121 20.0319 10.078 19.7174C10.5548 19.403 10.9264 18.956 11.1459 18.4331C11.3653 17.9102 11.4227 17.3348 11.3108 16.7796C11.199 16.2245 10.9228 15.7146 10.5173 15.3144C10.1118 14.9142 9.59517 14.6416 9.03274 14.5312C8.4703 14.4208 7.88733 14.4775 7.35754 14.6941C6.82775 14.9108 6.37494 15.2776 6.05637 15.7482C5.7378 16.2188 5.56778 16.7721 5.56781 17.3381C5.56789 18.0971 5.8734 18.8249 6.41713 19.3614C6.96087 19.898 7.69829 20.1995 8.46719 20.1994V20.1997ZM15.6632 7.01847C16.2367 7.01847 16.7972 6.85063 17.274 6.53618C17.7508 6.22173 18.1225 5.77479 18.3419 5.25188C18.5614 4.72897 18.6188 4.15357 18.5069 3.59845C18.395 3.04333 18.1189 2.53342 17.7134 2.1332C17.3079 1.73298 16.7913 1.46042 16.2289 1.35C15.6664 1.23958 15.0835 1.29626 14.5537 1.51285C14.0239 1.72945 13.5711 2.09624 13.2525 2.56685C12.9339 3.03746 12.7638 3.59075 12.7638 4.15674C12.7638 4.53254 12.8388 4.90466 12.9846 5.25186C13.1303 5.59905 13.3438 5.91451 13.6131 6.18024C13.8823 6.44596 14.2019 6.65674 14.5537 6.80054C14.9055 6.94434 15.2825 7.01849 15.6632 7.01847ZM36.5 6.09845C37.0735 6.09848 37.634 5.93067 38.1109 5.61623C38.5877 5.30179 38.9593 4.85485 39.1788 4.33193C39.3983 3.80901 39.4557 3.2336 39.3438 2.67847C39.232 2.12333 38.9558 1.61341 38.5503 1.21318C38.1448 0.812953 37.6282 0.540397 37.0658 0.429981C36.5033 0.319566 35.9203 0.37625 35.3905 0.592866C34.8607 0.809481 34.4079 1.1763 34.0893 1.64693C33.7708 2.11756 33.6007 2.67087 33.6008 3.23688C33.6008 3.9958 33.9063 4.72363 34.45 5.26027C34.9937 5.79692 35.7311 6.09841 36.5 6.09845ZM57.3368 7.01877C57.9102 7.01877 58.4708 6.85092 58.9476 6.53647C59.4244 6.22201 59.796 5.77506 60.0155 5.25214C60.2349 4.72922 60.2923 4.15381 60.1804 3.59869C60.0685 3.04357 59.7924 2.53366 59.3869 2.13344C58.9814 1.73323 58.4648 1.46069 57.9023 1.35028C57.3399 1.23988 56.7569 1.29657 56.2271 1.51319C55.6973 1.72981 55.2445 2.09663 54.9259 2.56726C54.6074 3.03789 54.4374 3.59119 54.4374 4.15719C54.4374 4.53299 54.5124 4.90511 54.6581 5.2523C54.8038 5.59949 55.0174 5.91496 55.2866 6.18068C55.5558 6.44641 55.8755 6.65719 56.2272 6.80098C56.579 6.94478 56.956 7.01879 57.3368 7.01877ZM64.5328 20.2C65.1063 20.2 65.6669 20.0322 66.1437 19.7178C66.6205 19.4033 66.9921 18.9564 67.2116 18.4335C67.4311 17.9106 67.4885 17.3352 67.3766 16.78C67.2648 16.2249 66.9886 15.715 66.5831 15.3147C66.1776 14.9145 65.661 14.642 65.0986 14.5315C64.5361 14.4211 63.9531 14.4778 63.4234 14.6944C62.8936 14.911 62.4407 15.2779 62.1222 15.7485C61.8036 16.2191 61.6336 16.7724 61.6336 17.3384C61.6338 18.0973 61.9393 18.8249 62.483 19.3615C63.0267 19.898 63.764 20.1994 64.5328 20.1994V20.2Z" fill="#ED052D"/>
</svg>
